<svg width="3264" height="1932" viewBox="0 0 3264 1932" fill="none" xmlns="http://www.w3.org/2000/svg">
<rect width="3264" height="1932" fill="#04080B"/>
<path fill-rule="evenodd" clip-rule="evenodd" d="M1938.17 501.114C1938.17 505.25 1937.12 509.141 1935.27 512.532C1937.85 512.568 1940.35 512.664 1942.78 512.821C1967.75 514.431 1980.38 521.984 1986.25 530.263C1992.12 538.543 1995.08 552.983 1988.39 577.162C1981.76 601.082 1966.63 630.56 1942.87 663.787C1921.57 693.581 1894.03 725.428 1861.24 757.813V793.472C1981.81 680.045 2044.37 567.87 2007.15 515.369C1993.47 496.066 1967.75 486.883 1933.42 486.808C1936.4 490.795 1938.17 495.748 1938.17 501.114ZM1809.74 839.01H1797.14V816.067C1790.56 821.595 1783.84 827.113 1776.99 832.612V865.34C1788.22 856.622 1799.14 847.836 1809.74 839.01ZM1707.4 915.79V884.643C1683.42 901.326 1659.52 916.743 1635.97 930.821V960.64C1659.52 946.967 1683.42 931.99 1707.4 915.79ZM1560.48 1000.61H1496.27C1478.63 1007.55 1461.67 1013.43 1445.54 1018.2C1406.43 1029.78 1373.69 1034.42 1348.98 1032.83C1324.01 1031.22 1311.38 1023.66 1305.51 1015.38C1299.64 1007.1 1296.68 992.664 1303.37 968.486C1309.99 944.566 1325.13 915.087 1348.89 881.86C1368.25 854.783 1392.76 826.011 1421.68 796.68V760.587C1306.92 871.114 1248.31 979.076 1284.61 1030.28C1318.91 1078.66 1428.81 1063.47 1560.48 1000.61ZM1559.33 647.205C1682.1 560.002 1805.35 504.13 1893.17 490.219C1891.49 493.486 1890.55 497.189 1890.55 501.114C1890.55 506.68 1892.45 511.801 1895.63 515.861C1880.59 518.322 1864.07 522.16 1846.22 527.443C1768.26 550.515 1670.61 599.441 1572.52 669.341C1571.55 670.039 1570.57 670.737 1569.59 671.435L1559.33 647.205Z" fill="#BAC9D8"/>
<path fill-rule="evenodd" clip-rule="evenodd" d="M1915.03 541.912C1937.82 541.912 1956.29 523.409 1956.29 500.584C1956.29 477.759 1937.82 459.256 1915.03 459.256C1892.25 459.256 1873.78 477.759 1873.78 500.584C1873.78 523.409 1892.25 541.912 1915.03 541.912ZM1914.12 525.381C1927.28 525.381 1937.95 514.69 1937.95 501.502C1937.95 488.315 1927.28 477.624 1914.12 477.624C1900.95 477.624 1890.28 488.315 1890.28 501.502C1890.28 514.69 1900.95 525.381 1914.12 525.381Z" fill="#BAC9D8"/>
<path d="M1521.12 987.992V873.853C1521.12 829.19 1520.57 795.004 1515.63 764.677L1601.2 987.992H1682.37L1768.48 764.677C1764.09 795.004 1764.09 814.303 1764.09 902.526V987.992H1850.2V579.96H1762.99L1641.78 884.33L1521.12 579.96H1435.01V987.992H1521.12Z" fill="#BAC9D8"/>
<rect x="1151" y="1124" width="483" height="104" rx="22" fill="#BAC9D8"/>
<rect x="1975" y="1126" width="713" height="102" rx="22" fill="#BAC9D8"/>
<path d="M624.883 1202V1192.4H605.171V1182.61H622.643V1173.52H605.171V1164.24H624.883V1154.64H594.803V1202H624.883ZM659.606 1202V1171.92L679.574 1202H689.814V1154.64H679.574V1184.78L659.606 1154.64H649.366V1202H659.606ZM736.158 1202.77C747.998 1202.77 756.83 1195.79 758.494 1185.23H747.742C746.462 1189.9 742.174 1192.78 736.35 1192.78C728.734 1192.78 723.998 1187.22 723.998 1178.32C723.998 1169.3 728.67 1163.86 736.35 1163.86C742.046 1163.86 746.078 1166.54 747.486 1171.28H758.43C756.958 1160.66 748.446 1153.87 736.606 1153.87C722.462 1153.87 713.054 1163.6 713.054 1178.38C713.054 1193.36 721.95 1202.77 736.158 1202.77ZM781.108 1184.21C781.108 1195.54 788.724 1202.77 800.564 1202.77C812.468 1202.77 820.148 1195.47 820.148 1184.21V1154.64H809.78V1183.5C809.78 1189.33 806.452 1192.72 800.564 1192.72C794.74 1192.72 791.476 1189.46 791.476 1183.5V1154.64H781.108V1184.21ZM875.758 1202V1192.4H856.046V1182.61H873.518V1173.52H856.046V1164.24H875.758V1154.64H845.678V1202H875.758ZM910.481 1202V1171.92L930.449 1202H940.689V1154.64H930.449V1184.78L910.481 1154.64H900.241V1202H910.481ZM962.905 1164.24H976.345V1202H986.713V1164.24H1000.15V1154.64H962.905V1164.24ZM1032.73 1202V1185.42H1040.73L1047.84 1202H1059.17L1050.85 1183.18C1056.09 1180.5 1058.72 1176.14 1058.72 1170C1058.72 1160.21 1052.19 1154.64 1040.67 1154.64H1022.37V1202H1032.73ZM1032.73 1163.86H1040.67C1045.28 1163.86 1047.77 1166.03 1047.77 1170C1047.77 1174.03 1045.15 1176.34 1040.61 1176.34H1032.73V1163.86ZM1088.89 1202L1092.28 1192.02H1107.58L1110.91 1202H1121.92L1105.08 1154.64H1094.97L1078.08 1202H1088.89ZM1098.68 1173.2C1099.26 1171.47 1099.77 1169.68 1099.96 1168.59C1100.16 1169.74 1100.73 1171.6 1101.24 1173.2L1104.64 1183.31H1095.29L1098.68 1173.2ZM1664.8 1168.4C1664.8 1176.14 1669.16 1180.94 1677.6 1182.67L1684.84 1184.14C1687.97 1184.78 1689.19 1186.13 1689.19 1188.75C1689.19 1191.76 1686.24 1193.62 1681.57 1193.62C1676.96 1193.62 1674.4 1191.7 1674.4 1188.24H1664.1C1664.1 1197.14 1670.95 1202.83 1681.51 1202.83C1692.39 1202.83 1699.56 1196.88 1699.56 1187.73C1699.56 1180.24 1695.52 1176.21 1687.08 1174.48L1679.97 1173.01C1676.64 1172.3 1675.17 1170.9 1675.17 1168.02C1675.17 1164.88 1677.86 1162.96 1682.08 1162.96C1685.99 1162.96 1688.48 1165.01 1688.48 1168.34H1698.79C1698.79 1159.38 1692.39 1153.74 1682.21 1153.74C1672.04 1153.74 1664.8 1159.82 1664.8 1168.4ZM1766.2 1178.26C1766.2 1163.79 1756.73 1153.81 1742.97 1153.81C1729.28 1153.81 1719.8 1163.86 1719.8 1178.32C1719.8 1192.78 1729.21 1202.77 1742.91 1202.77C1756.67 1202.77 1766.2 1192.72 1766.2 1178.26ZM1755.26 1178.26C1755.26 1187.22 1750.65 1192.78 1743.04 1192.78C1735.36 1192.78 1730.75 1187.34 1730.75 1178.26C1730.75 1169.23 1735.36 1163.79 1743.04 1163.79C1750.65 1163.79 1755.26 1169.23 1755.26 1178.26ZM1789.43 1202H1809.14C1819.38 1202 1825.01 1197.33 1825.01 1188.94C1825.01 1183.57 1822.52 1179.92 1817.84 1178.38C1822.13 1176.53 1824.44 1172.82 1824.44 1167.76C1824.44 1159.63 1818.68 1154.64 1809.14 1154.64H1789.43V1202ZM1808.05 1163.73C1811.83 1163.73 1813.81 1165.46 1813.81 1168.78C1813.81 1172.18 1811.76 1174.03 1808.05 1174.03H1799.8V1163.73H1808.05ZM1808.56 1182.74C1812.34 1182.74 1814.39 1184.46 1814.39 1187.66C1814.39 1191.18 1812.4 1192.91 1808.56 1192.91H1799.8V1182.74H1808.56ZM1858.36 1202V1185.42H1866.36L1873.46 1202H1884.79L1876.47 1183.18C1881.72 1180.5 1884.34 1176.14 1884.34 1170C1884.34 1160.21 1877.81 1154.64 1866.29 1154.64H1847.99V1202H1858.36ZM1858.36 1163.86H1866.29C1870.9 1163.86 1873.4 1166.03 1873.4 1170C1873.4 1174.03 1870.77 1176.34 1866.23 1176.34H1858.36V1163.86ZM1938.13 1202V1192.4H1918.42V1182.61H1935.89V1173.52H1918.42V1164.24H1938.13V1154.64H1908.05V1202H1938.13Z" fill="#BAC9D8"/>
<path d="M1186.73 1154.64H1176.37V1202H1205.42V1192.4H1186.73V1154.64ZM1269.45 1178.26C1269.45 1163.79 1259.98 1153.81 1246.22 1153.81C1232.53 1153.81 1223.05 1163.86 1223.05 1178.32C1223.05 1192.78 1232.46 1202.77 1246.16 1202.77C1259.92 1202.77 1269.45 1192.72 1269.45 1178.26ZM1258.51 1178.26C1258.51 1187.22 1253.9 1192.78 1246.29 1192.78C1238.61 1192.78 1234 1187.34 1234 1178.26C1234 1169.23 1238.61 1163.79 1246.29 1163.79C1253.9 1163.79 1258.51 1169.23 1258.51 1178.26ZM1335.66 1202V1188.75C1335.66 1183.57 1335.6 1179.6 1335.02 1176.08L1345.01 1202H1354.48L1364.53 1176.08C1364.02 1179.6 1364.02 1181.84 1364.02 1192.08V1202H1374.06V1154.64H1363.89L1349.74 1189.97L1335.66 1154.64H1325.62V1202H1335.66ZM1430.01 1202V1192.4H1410.3V1182.61H1427.77V1173.52H1410.3V1164.24H1430.01V1154.64H1399.93V1202H1430.01ZM1450.84 1188.43C1450.84 1196.62 1455.9 1202.83 1466.33 1202.83C1475.87 1202.83 1481.88 1196.82 1481.88 1188.69V1154.64H1471.51V1188.05C1471.51 1191.25 1470.04 1193.23 1466.2 1193.23C1462.23 1193.23 1460.83 1190.93 1460.83 1188.43V1185.1H1450.84V1188.43ZM1551.2 1178.26C1551.2 1163.79 1541.73 1153.81 1527.97 1153.81C1514.28 1153.81 1504.8 1163.86 1504.8 1178.32C1504.8 1192.78 1514.21 1202.77 1527.91 1202.77C1541.67 1202.77 1551.2 1192.72 1551.2 1178.26ZM1540.26 1178.26C1540.26 1187.22 1535.65 1192.78 1528.04 1192.78C1520.36 1192.78 1515.75 1187.34 1515.75 1178.26C1515.75 1169.23 1520.36 1163.79 1528.04 1163.79C1535.65 1163.79 1540.26 1169.23 1540.26 1178.26ZM1584.8 1202V1185.42H1592.8L1599.9 1202H1611.23L1602.91 1183.18C1608.16 1180.5 1610.78 1176.14 1610.78 1170C1610.78 1160.21 1604.25 1154.64 1592.73 1154.64H1574.43V1202H1584.8ZM1584.8 1163.86H1592.73C1597.34 1163.86 1599.84 1166.03 1599.84 1170C1599.84 1174.03 1597.21 1176.34 1592.67 1176.34H1584.8V1163.86ZM2005.6 1202V1188.75C2005.6 1183.57 2005.54 1179.6 2004.96 1176.08L2014.95 1202H2024.42L2034.47 1176.08C2033.95 1179.6 2033.95 1181.84 2033.95 1192.08V1202H2044V1154.64H2033.83L2019.68 1189.97L2005.6 1154.64H1995.55V1202H2005.6ZM2076.33 1202L2079.72 1192.02H2095.02L2098.35 1202H2109.35L2092.52 1154.64H2082.41L2065.51 1202H2076.33ZM2086.12 1173.2C2086.7 1171.47 2087.21 1169.68 2087.4 1168.59C2087.59 1169.74 2088.17 1171.6 2088.68 1173.2L2092.07 1183.31H2082.73L2086.12 1173.2ZM2128.24 1168.4C2128.24 1176.14 2132.59 1180.94 2141.04 1182.67L2148.27 1184.14C2151.41 1184.78 2152.63 1186.13 2152.63 1188.75C2152.63 1191.76 2149.68 1193.62 2145.01 1193.62C2140.4 1193.62 2137.84 1191.7 2137.84 1188.24H2127.54C2127.54 1197.14 2134.39 1202.83 2144.95 1202.83C2155.83 1202.83 2162.99 1196.88 2162.99 1187.73C2162.99 1180.24 2158.96 1176.21 2150.51 1174.48L2143.41 1173.01C2140.08 1172.3 2138.61 1170.9 2138.61 1168.02C2138.61 1164.88 2141.3 1162.96 2145.52 1162.96C2149.43 1162.96 2151.92 1165.01 2151.92 1168.34H2162.23C2162.23 1159.38 2155.83 1153.74 2145.65 1153.74C2135.47 1153.74 2128.24 1159.82 2128.24 1168.4ZM2206.35 1202.77C2218.19 1202.77 2227.02 1195.79 2228.68 1185.23H2217.93C2216.65 1189.9 2212.36 1192.78 2206.54 1192.78C2198.92 1192.78 2194.19 1187.22 2194.19 1178.32C2194.19 1169.3 2198.86 1163.86 2206.54 1163.86C2212.23 1163.86 2216.27 1166.54 2217.67 1171.28H2228.62C2227.15 1160.66 2218.63 1153.87 2206.79 1153.87C2192.65 1153.87 2183.24 1163.6 2183.24 1178.38C2183.24 1193.36 2192.14 1202.77 2206.35 1202.77ZM2251.3 1184.21C2251.3 1195.54 2258.91 1202.77 2270.75 1202.77C2282.66 1202.77 2290.34 1195.47 2290.34 1184.21V1154.64H2279.97V1183.5C2279.97 1189.33 2276.64 1192.72 2270.75 1192.72C2264.93 1192.72 2261.66 1189.46 2261.66 1183.5V1154.64H2251.3V1184.21ZM2326.23 1154.64H2315.87V1202H2344.92V1192.4H2326.23V1154.64ZM2377.8 1154.64H2367.43V1202H2377.8V1154.64ZM2413.92 1202V1171.92L2433.89 1202H2444.13V1154.64H2433.89V1184.78L2413.92 1154.64H2403.68V1202H2413.92ZM2480.36 1154.64H2469.99V1202H2480.36V1154.64ZM2524.8 1202C2538.3 1202 2547.71 1192.27 2547.71 1178.45C2547.71 1164.37 2538.05 1154.64 2524.16 1154.64H2506.24V1202H2524.8ZM2523.14 1164.24C2531.71 1164.24 2536.77 1169.49 2536.77 1178.45C2536.77 1187.22 2531.97 1192.4 2523.78 1192.4H2516.61V1164.24H2523.14ZM2574.83 1202L2578.22 1192.02H2593.52L2596.85 1202H2607.85L2591.02 1154.64H2580.91L2564.01 1202H2574.83ZM2584.62 1173.2C2585.2 1171.47 2585.71 1169.68 2585.9 1168.59C2586.09 1169.74 2586.67 1171.6 2587.18 1173.2L2590.57 1183.31H2581.23L2584.62 1173.2ZM2647.93 1202C2661.43 1202 2670.84 1192.27 2670.84 1178.45C2670.84 1164.37 2661.17 1154.64 2647.29 1154.64H2629.37V1202H2647.93ZM2646.26 1164.24C2654.84 1164.24 2659.89 1169.49 2659.89 1178.45C2659.89 1187.22 2655.09 1192.4 2646.9 1192.4H2639.73V1164.24H2646.26Z" fill="#04080B"/>
</svg>
