<svg width="6783" height="4015" viewBox="0 0 6783 4015" fill="none" xmlns="http://www.w3.org/2000/svg">
<rect width="6783" height="4015" fill="#04080B"/>
<path fill-rule="evenodd" clip-rule="evenodd" d="M3995.27 1059.18C3995.27 1067.6 3993.14 1075.52 3989.38 1082.43C3994.63 1082.5 3999.72 1082.7 4004.65 1083.01C4055.5 1086.29 4081.2 1101.67 4093.15 1118.53C4105.1 1135.39 4111.13 1164.8 4097.5 1214.03C4084.02 1262.74 4053.21 1322.77 4004.84 1390.43C3961.47 1451.1 3905.41 1515.95 3838.68 1581.9V1654.51C4084.11 1423.54 4211.46 1195.11 4135.7 1088.2C4107.84 1048.9 4055.49 1030.2 3985.61 1030.04C3991.68 1038.16 3995.27 1048.25 3995.27 1059.18ZM3733.82 1747.24H3708.18V1700.52C3694.78 1711.78 3681.1 1723.02 3667.17 1734.21V1800.86C3690.01 1783.11 3712.24 1765.22 3733.82 1747.24ZM3525.48 1903.59V1840.17C3476.68 1874.14 3428.01 1905.53 3380.07 1934.2V1994.92C3428.03 1967.08 3476.68 1936.58 3525.48 1903.59ZM3226.4 2076.32H3095.7C3059.79 2090.45 3025.25 2102.42 2992.42 2112.14C2912.81 2135.71 2846.15 2145.16 2795.86 2141.92C2745.01 2138.64 2719.31 2123.26 2707.36 2106.4C2695.41 2089.54 2689.38 2060.13 2703.01 2010.9C2716.49 1962.19 2747.3 1902.16 2795.67 1834.5C2835.08 1779.36 2884.98 1720.77 2943.84 1661.04V1587.55C2710.23 1812.62 2590.92 2032.46 2664.81 2136.73C2734.63 2235.25 2958.35 2204.31 3226.4 2076.32ZM3224.06 1356.66C3473.98 1179.09 3724.89 1065.32 3903.66 1036.99C3900.25 1043.64 3898.33 1051.18 3898.33 1059.18C3898.33 1070.51 3902.2 1080.94 3908.68 1089.21C3878.07 1094.22 3844.43 1102.03 3808.09 1112.79C3649.38 1159.77 3450.6 1259.4 3250.92 1401.74C3248.93 1403.16 3246.94 1404.58 3244.96 1406.01L3224.06 1356.66Z" fill="#BAC9D8"/>
<path fill-rule="evenodd" clip-rule="evenodd" d="M3948.17 1142.25C3994.56 1142.25 4032.16 1104.58 4032.16 1058.1C4032.16 1011.62 3994.56 973.94 3948.17 973.94C3901.79 973.94 3864.19 1011.62 3864.19 1058.1C3864.19 1104.58 3901.79 1142.25 3948.17 1142.25ZM3946.31 1108.59C3973.11 1108.59 3994.83 1086.82 3994.83 1059.97C3994.83 1033.11 3973.11 1011.34 3946.31 1011.34C3919.51 1011.34 3897.78 1033.11 3897.78 1059.97C3897.78 1086.82 3919.51 1108.59 3946.31 1108.59Z" fill="#BAC9D8"/>
<path d="M3146.28 2050.62V1818.19C3146.28 1727.25 3145.16 1657.63 3135.11 1595.88L3309.29 2050.62H3474.54L3649.83 1595.88C3640.9 1657.63 3640.9 1696.93 3640.9 1876.58V2050.62H3816.19V1219.73H3638.67L3391.91 1839.53L3146.28 1219.73H2970.98V2050.62H3146.28Z" fill="#BAC9D8"/>
<path fill-rule="evenodd" clip-rule="evenodd" d="M2393.22 2371.85C2393.22 2347.08 2413.27 2327 2438 2327H3331.65C3356.38 2327 3376.43 2347.08 3376.43 2371.85V2494.15C3376.43 2518.92 3356.38 2539 3331.65 2539H2438C2413.27 2539 2393.22 2518.92 2393.22 2494.15V2371.85ZM4070.59 2375.92C4070.59 2351.16 4090.64 2331.08 4115.37 2331.08H5477.22C5501.95 2331.08 5522 2351.16 5522 2375.92V2494.15C5522 2518.92 5501.95 2539 5477.22 2539H4115.37C4090.64 2539 4070.59 2518.92 4070.59 2494.15V2375.92ZM1322.23 2466.43V2486H1261V2389.46H1322.23V2409.03H1282.11V2427.94H1317.67V2446.47H1282.11V2466.43H1322.23ZM1392.91 2424.68V2486H1372.07V2389.46H1392.91L1433.56 2450.91V2389.46H1454.41V2486H1433.56L1392.91 2424.68ZM1594.22 2451.82C1590.83 2473.35 1572.85 2487.57 1548.75 2487.57C1519.83 2487.57 1501.72 2468.39 1501.72 2437.86C1501.72 2407.72 1520.87 2387.89 1549.66 2387.89C1573.76 2387.89 1591.09 2401.72 1594.09 2423.38H1571.81C1568.94 2413.72 1560.73 2408.24 1549.14 2408.24C1533.51 2408.24 1523.99 2419.33 1523.99 2437.73C1523.99 2455.86 1533.64 2467.21 1549.14 2467.21C1560.99 2467.21 1569.72 2461.34 1572.33 2451.82H1594.22ZM1679.86 2487.57C1655.75 2487.57 1640.25 2472.82 1640.25 2449.73V2389.46H1661.36V2448.3C1661.36 2460.43 1668 2467.08 1679.86 2467.08C1691.84 2467.08 1698.62 2460.17 1698.62 2448.3V2389.46H1719.72V2449.73C1719.72 2472.69 1704.09 2487.57 1679.86 2487.57ZM1832.92 2466.43V2486H1771.69V2389.46H1832.92V2409.03H1792.8V2427.94H1828.36V2446.47H1792.8V2466.43H1832.92ZM1903.61 2424.68V2486H1882.76V2389.46H1903.61L1944.25 2450.91V2389.46H1965.1V2486H1944.25L1903.61 2424.68ZM2037.68 2409.03H2010.32V2389.46H2086.15V2409.03H2058.79V2486H2037.68V2409.03ZM2152.47 2452.21V2486H2131.36V2389.46H2168.62C2192.08 2389.46 2205.36 2400.81 2205.36 2420.77C2205.36 2433.29 2200.02 2442.16 2189.34 2447.64L2206.28 2486H2183.22L2168.75 2452.21H2152.47ZM2168.62 2408.24H2152.47V2433.68H2168.49C2177.74 2433.68 2183.09 2428.99 2183.09 2420.77C2183.09 2412.68 2178 2408.24 2168.62 2408.24ZM2273.69 2465.65L2266.79 2486H2244.77L2279.17 2389.46H2299.75L2334.01 2486H2311.61L2304.83 2465.65H2273.69ZM2289.33 2417.9C2288.94 2420.12 2287.89 2423.77 2286.72 2427.29L2279.82 2447.91H2298.84L2291.93 2427.29C2290.89 2424.03 2289.72 2420.25 2289.33 2417.9ZM3465.2 2446.6C3448 2443.08 3439.14 2433.29 3439.14 2417.51C3439.14 2400.03 3453.86 2387.63 3474.58 2387.63C3495.29 2387.63 3508.32 2399.11 3508.32 2417.38H3487.34C3487.34 2410.59 3482.26 2406.42 3474.31 2406.42C3465.72 2406.42 3460.24 2410.33 3460.24 2416.72C3460.24 2422.6 3463.24 2425.47 3470.02 2426.9L3484.48 2429.9C3501.67 2433.42 3509.88 2441.64 3509.88 2456.91C3509.88 2475.56 3495.29 2487.7 3473.14 2487.7C3451.65 2487.7 3437.71 2476.08 3437.71 2457.95H3458.68C3458.68 2465 3463.89 2468.91 3473.27 2468.91C3482.78 2468.91 3488.78 2465.13 3488.78 2458.99C3488.78 2453.65 3486.3 2450.91 3479.92 2449.6L3465.2 2446.6ZM3598.26 2387.76C3626.27 2387.76 3645.55 2408.11 3645.55 2437.6C3645.55 2467.08 3626.14 2487.57 3598.13 2487.57C3570.25 2487.57 3551.1 2467.21 3551.1 2437.73C3551.1 2408.24 3570.38 2387.76 3598.26 2387.76ZM3598.39 2467.21C3613.9 2467.21 3623.28 2455.86 3623.28 2437.6C3623.28 2419.2 3613.9 2408.11 3598.39 2408.11C3582.76 2408.11 3573.38 2419.2 3573.38 2437.6C3573.38 2456.12 3582.76 2467.21 3598.39 2467.21ZM3732.96 2486H3692.83V2389.46H3732.96C3752.37 2389.46 3764.09 2399.63 3764.09 2416.2C3764.09 2426.51 3759.4 2434.08 3750.67 2437.86C3760.18 2440.99 3765.27 2448.43 3765.27 2459.39C3765.27 2476.48 3753.8 2486 3732.96 2486ZM3742.47 2418.29C3742.47 2411.51 3738.43 2407.98 3730.74 2407.98H3713.93V2428.99H3730.74C3738.3 2428.99 3742.47 2425.2 3742.47 2418.29ZM3743.64 2456.78C3743.64 2450.25 3739.47 2446.73 3731.78 2446.73H3713.93V2467.47H3731.78C3739.6 2467.47 3743.64 2463.95 3743.64 2456.78ZM3833.15 2452.21V2486H3812.04V2389.46H3849.3C3872.75 2389.46 3886.04 2400.81 3886.04 2420.77C3886.04 2433.29 3880.7 2442.16 3870.02 2447.64L3886.95 2486H3863.89L3849.43 2452.21H3833.15ZM3849.3 2408.24H3833.15V2433.68H3849.17C3858.42 2433.68 3863.76 2428.99 3863.76 2420.77C3863.76 2412.68 3858.68 2408.24 3849.3 2408.24ZM3995.54 2466.43V2486H3934.31V2389.46H3995.54V2409.03H3955.41V2427.94H3990.98V2446.47H3955.41V2466.43H3995.54ZM2444.85 2389.46H2465.96V2466.43H2504V2486H2444.85V2389.46ZM2587.06 2387.76C2615.07 2387.76 2634.35 2408.11 2634.35 2437.6C2634.35 2467.08 2614.94 2487.57 2586.93 2487.57C2559.05 2487.57 2539.89 2467.21 2539.89 2437.73C2539.89 2408.24 2559.18 2387.76 2587.06 2387.76ZM2587.19 2467.21C2602.69 2467.21 2612.07 2455.86 2612.07 2437.6C2612.07 2419.2 2602.69 2408.11 2587.19 2408.11C2571.55 2408.11 2562.17 2419.2 2562.17 2437.6C2562.17 2456.12 2571.55 2467.21 2587.19 2467.21ZM2769.13 2458.99V2486H2748.67V2389.46H2769.13L2797.79 2461.47L2826.58 2389.46H2847.3V2486H2826.84V2465.78C2826.84 2444.9 2826.84 2440.34 2827.88 2433.16L2807.43 2486H2788.15L2767.82 2433.16C2769 2440.34 2769.13 2448.43 2769.13 2458.99ZM2961.18 2466.43V2486H2899.95V2389.46H2961.18V2409.03H2921.05V2427.94H2956.62V2446.47H2921.05V2466.43H2961.18ZM3035.12 2487.7C3013.88 2487.7 3003.59 2475.04 3003.59 2458.34V2451.56H3023.91V2458.34C3023.91 2463.43 3026.78 2468.13 3034.86 2468.13C3042.67 2468.13 3045.67 2464.08 3045.67 2457.56V2389.46H3066.78V2458.86C3066.78 2475.43 3054.53 2487.7 3035.12 2487.7ZM3160.6 2387.76C3188.61 2387.76 3207.89 2408.11 3207.89 2437.6C3207.89 2467.08 3188.48 2487.57 3160.47 2487.57C3132.59 2487.57 3113.44 2467.21 3113.44 2437.73C3113.44 2408.24 3132.72 2387.76 3160.6 2387.76ZM3160.73 2467.21C3176.23 2467.21 3185.61 2455.86 3185.61 2437.6C3185.61 2419.2 3176.23 2408.11 3160.73 2408.11C3145.09 2408.11 3135.71 2419.2 3135.71 2437.6C3135.71 2456.12 3145.09 2467.21 3160.73 2467.21ZM3276.27 2452.21V2486H3255.17V2389.46H3292.43C3315.88 2389.46 3329.17 2400.81 3329.17 2420.77C3329.17 2433.29 3323.82 2442.16 3313.14 2447.64L3330.08 2486H3307.02L3292.56 2452.21H3276.27ZM3292.43 2408.24H3276.27V2433.68H3292.3C3301.55 2433.68 3306.89 2428.99 3306.89 2420.77C3306.89 2412.68 3301.81 2408.24 3292.43 2408.24ZM4132.88 2458.99V2486H4112.43V2389.46H4132.88L4161.54 2461.47L4190.33 2389.46H4211.05V2486H4190.59V2465.78C4190.59 2444.9 4190.59 2440.34 4191.64 2433.16L4171.18 2486H4151.9L4131.58 2433.16C4132.75 2440.34 4132.88 2448.43 4132.88 2458.99ZM4283.76 2465.65L4276.86 2486H4254.84L4289.23 2389.46H4309.82L4344.08 2486H4321.67L4314.9 2465.65H4283.76ZM4299.4 2417.9C4299.01 2420.12 4297.96 2423.77 4296.79 2427.29L4289.89 2447.91H4308.91L4302 2427.29C4300.96 2424.03 4299.79 2420.25 4299.4 2417.9ZM4408.59 2446.6C4391.39 2443.08 4382.53 2433.29 4382.53 2417.51C4382.53 2400.03 4397.25 2387.63 4417.97 2387.63C4438.68 2387.63 4451.71 2399.11 4451.71 2417.38H4430.74C4430.74 2410.59 4425.66 2406.42 4417.71 2406.42C4409.11 2406.42 4403.64 2410.33 4403.64 2416.72C4403.64 2422.6 4406.63 2425.47 4413.41 2426.9L4427.87 2429.9C4445.07 2433.42 4453.27 2441.64 4453.27 2456.91C4453.27 2475.56 4438.68 2487.7 4416.54 2487.7C4395.04 2487.7 4381.1 2476.08 4381.1 2457.95H4402.07C4402.07 2465 4407.29 2468.91 4416.67 2468.91C4426.18 2468.91 4432.17 2465.13 4432.17 2458.99C4432.17 2453.65 4429.69 2450.91 4423.31 2449.6L4408.59 2446.6ZM4586.99 2451.82C4583.6 2473.35 4565.63 2487.57 4541.52 2487.57C4512.6 2487.57 4494.49 2468.39 4494.49 2437.86C4494.49 2407.72 4513.64 2387.89 4542.44 2387.89C4566.54 2387.89 4583.87 2401.72 4586.86 2423.38H4564.58C4561.72 2413.72 4553.51 2408.24 4541.91 2408.24C4526.28 2408.24 4516.77 2419.33 4516.77 2437.73C4516.77 2455.86 4526.41 2467.21 4541.91 2467.21C4553.77 2467.21 4562.5 2461.34 4565.1 2451.82H4586.99ZM4672.63 2487.57C4648.53 2487.57 4633.03 2472.82 4633.03 2449.73V2389.46H4654.13V2448.3C4654.13 2460.43 4660.78 2467.08 4672.63 2467.08C4684.62 2467.08 4691.39 2460.17 4691.39 2448.3V2389.46H4712.5V2449.73C4712.5 2472.69 4696.86 2487.57 4672.63 2487.57ZM4764.47 2389.46H4785.57V2466.43H4823.61V2486H4764.47V2389.46ZM4869.43 2389.46H4890.54V2486H4869.43V2389.46ZM4964.07 2424.68V2486H4943.22V2389.46H4964.07L5004.71 2450.91V2389.46H5025.56V2486H5004.71L4964.07 2424.68ZM5078.21 2389.46H5099.32V2486H5078.21V2389.46ZM5236.43 2437.99C5236.43 2466.17 5217.27 2486 5189.78 2486H5152V2389.46H5188.48C5216.75 2389.46 5236.43 2409.29 5236.43 2437.99ZM5214.15 2437.99C5214.15 2419.73 5203.85 2409.03 5186.4 2409.03H5173.11V2466.43H5187.7C5204.38 2466.43 5214.15 2455.86 5214.15 2437.99ZM5298.53 2465.65L5291.63 2486H5269.61L5304 2389.46H5324.59L5358.85 2486H5336.44L5329.67 2465.65H5298.53ZM5314.16 2417.9C5313.77 2420.12 5312.73 2423.77 5311.56 2427.29L5304.65 2447.91H5323.67L5316.77 2427.29C5315.73 2424.03 5314.55 2420.25 5314.16 2417.9ZM5487.06 2437.99C5487.06 2466.17 5467.91 2486 5440.42 2486H5402.64V2389.46H5439.12C5467.39 2389.46 5487.06 2409.29 5487.06 2437.99ZM5464.79 2437.99C5464.79 2419.73 5454.49 2409.03 5437.04 2409.03H5423.75V2466.43H5438.34C5455.01 2466.43 5464.79 2455.86 5464.79 2437.99Z" fill="#BAC9D8"/>
</svg>
