<svg width="4067" height="2091" viewBox="0 0 4067 2091" fill="none" xmlns="http://www.w3.org/2000/svg">
<rect width="4067" height="2091" fill="#04080B"/>
<path d="M3030.08 635.695C3032.55 642.203 3030.96 651.903 3021.6 665.818C3012.41 679.473 2996.79 695.538 2974.94 713.674C2931.31 749.88 2864.28 793.161 2778.66 840.699C2607.54 935.72 2363.31 1047.13 2086.58 1152.33C1809.84 1257.53 1553.28 1336.49 1362.25 1379.15C1266.68 1400.49 1187.82 1412.66 1131.16 1414.58C1102.78 1415.55 1080.43 1413.91 1064.49 1409.81C1048.25 1405.63 1040.62 1399.43 1038.14 1392.92C1035.67 1386.42 1037.26 1376.72 1046.62 1362.8C1055.81 1349.15 1071.43 1333.08 1093.28 1314.95C1136.91 1278.74 1203.94 1235.46 1289.55 1187.92C1460.68 1092.9 1704.9 981.491 1981.64 876.29C2258.38 771.089 2514.94 692.125 2705.97 649.472C2801.54 628.133 2880.4 615.956 2937.06 614.036C2965.44 613.075 2987.79 614.709 3003.73 618.811C3019.97 622.991 3027.6 629.187 3030.08 635.695Z" stroke="#BAC9D8" stroke-width="15"/>
<rect x="1061" y="834" width="1946" height="360" fill="#04080B"/>
<path d="M1437.94 1046H1428.34V904H1437.94L1492.34 1034.4L1546.54 904H1556.34V1046H1546.74V968.2C1546.74 948.867 1547.07 934 1547.74 923.6L1497.14 1046H1487.54L1436.94 924.2C1437.6 930.867 1437.94 945.533 1437.94 968.2V1046ZM1687 950H1696.2V1046H1688.8L1687 1028.2C1684.33 1034.2 1679.87 1039.07 1673.6 1042.8C1667.33 1046.53 1660.2 1048.4 1652.2 1048.4C1641 1048.4 1632.4 1044.87 1626.4 1037.8C1620.4 1030.73 1617.4 1021.2 1617.4 1009.2V949.8H1626.8V1006.8C1626.8 1028.93 1636 1040 1654.4 1040C1664.53 1040 1672.47 1036.6 1678.2 1029.8C1684.07 1023 1687 1013.47 1687 1001.2V950ZM1745.21 1086.6V1079.2H1754.21C1756.87 1079.2 1758.94 1079.07 1760.41 1078.8C1762.01 1078.67 1763.94 1078.2 1766.21 1077.4C1768.61 1076.73 1770.61 1075.4 1772.21 1073.4C1773.94 1071.4 1775.41 1068.8 1776.61 1065.6L1781.41 1052.6L1742.41 950H1752.01L1785.81 1040L1818.21 950H1827.61L1785.01 1068.2C1780.21 1081.27 1771.27 1087.8 1758.21 1087.8C1753.54 1087.8 1749.21 1087.4 1745.21 1086.6ZM2014.72 992.6H1971.32V1046H1961.72V904H2014.72C2028.19 904 2038.79 908 2046.52 916C2054.39 924 2058.32 934.667 2058.32 948C2058.32 960.8 2054.32 971.467 2046.32 980C2038.32 988.4 2027.79 992.6 2014.72 992.6ZM2014.32 912.8H1971.32V983.8H2013.12C2024.05 983.8 2032.65 980.467 2038.92 973.8C2045.32 967.133 2048.52 958.4 2048.52 947.6C2048.52 936.933 2045.39 928.467 2039.12 922.2C2032.99 915.933 2024.72 912.8 2014.32 912.8ZM2154.23 948.6V956.6H2147.03C2138.23 956.6 2131.09 959.533 2125.63 965.4C2120.29 971.133 2117.63 978.533 2117.63 987.6V1046H2108.43V950H2117.03L2117.83 965.4C2119.69 959.933 2123.09 955.6 2128.03 952.4C2133.09 949.2 2139.03 947.6 2145.83 947.6C2148.76 947.6 2151.56 947.933 2154.23 948.6ZM2204.76 1034.2C2195.83 1024.6 2191.36 1012.53 2191.36 998C2191.36 983.467 2195.83 971.467 2204.76 962C2213.83 952.4 2225.23 947.6 2238.96 947.6C2252.69 947.6 2264.03 952.4 2272.96 962C2282.03 971.467 2286.56 983.467 2286.56 998C2286.56 1012.53 2282.03 1024.6 2272.96 1034.2C2264.03 1043.67 2252.69 1048.4 2238.96 1048.4C2225.23 1048.4 2213.83 1043.67 2204.76 1034.2ZM2211.36 967.8C2204.29 975.667 2200.76 985.733 2200.76 998C2200.76 1010.27 2204.29 1020.33 2211.36 1028.2C2218.56 1036.07 2227.76 1040 2238.96 1040C2250.16 1040 2259.29 1036.07 2266.36 1028.2C2273.56 1020.33 2277.16 1010.27 2277.16 998C2277.16 985.733 2273.56 975.667 2266.36 967.8C2259.29 959.933 2250.16 956 2238.96 956C2227.76 956 2218.56 959.933 2211.36 967.8ZM2347.89 1046H2338.69V950H2346.09L2348.09 968.6C2351.29 961.933 2355.89 956.8 2361.89 953.2C2368.03 949.467 2374.76 947.6 2382.09 947.6C2407.03 947.6 2419.49 960.933 2419.49 987.6V1046H2410.29V989.4C2410.29 977.267 2407.83 968.667 2402.89 963.6C2398.09 958.533 2391.09 956 2381.89 956C2371.23 956 2362.89 959.667 2356.89 967C2350.89 974.333 2347.89 984.133 2347.89 996.4V1046ZM2495.05 1046H2485.85V958H2466.45V950H2485.85V919.6H2495.05V950H2514.45V958H2495.05V1046ZM2567.93 1034.2C2559 1024.6 2554.53 1012.53 2554.53 998C2554.53 983.467 2559 971.467 2567.93 962C2577 952.4 2588.4 947.6 2602.13 947.6C2615.86 947.6 2627.2 952.4 2636.13 962C2645.2 971.467 2649.73 983.467 2649.73 998C2649.73 1012.53 2645.2 1024.6 2636.13 1034.2C2627.2 1043.67 2615.86 1048.4 2602.13 1048.4C2588.4 1048.4 2577 1043.67 2567.93 1034.2ZM2574.53 967.8C2567.46 975.667 2563.93 985.733 2563.93 998C2563.93 1010.27 2567.46 1020.33 2574.53 1028.2C2581.73 1036.07 2590.93 1040 2602.13 1040C2613.33 1040 2622.46 1036.07 2629.53 1028.2C2636.73 1020.33 2640.33 1010.27 2640.33 998C2640.33 985.733 2636.73 975.667 2629.53 967.8C2622.46 959.933 2613.33 956 2602.13 956C2590.93 956 2581.73 959.933 2574.53 967.8Z" fill="#BAC9D8"/>
</svg>
