<svg width="61" height="60" viewBox="0 0 61 60" fill="none" xmlns="http://www.w3.org/2000/svg">
<path d="M54.7763 17.4C54.2902 14.761 51.9741 12.8391 49.2863 12.2391C45.2641 11.4 37.8202 10.8 29.7663 10.8C21.7171 10.8 14.1541 11.4 10.1271 12.2391C7.44406 12.8391 5.1232 14.6391 4.63711 17.4C4.14625 20.4 3.66016 24.6 3.66016 30C3.66016 35.4 4.14625 39.6 4.75625 42.6001C5.24711 45.2391 7.5632 47.161 10.2463 47.761C14.5163 48.6001 21.8363 49.2001 29.8902 49.2001C37.9441 49.2001 45.2641 48.6001 49.5341 47.761C52.2171 47.161 54.5332 45.361 55.0241 42.6001C55.5102 39.6 56.1202 35.2782 56.2441 30C55.9963 24.6 55.3863 20.4 54.7763 17.4ZM23.1802 38.4V21.6L38.0632 30L23.1802 38.4Z" fill="#BAC9D8"/>
</svg>
