<svg width="236" height="25" viewBox="0 0 236 25" fill="none" xmlns="http://www.w3.org/2000/svg">
<g>
<path d="M90.2637 11.3046C90.0018 14.0749 64.2631 22.4794 56.4024 24.832C52.8556 24.5147 48.2706 24.2849 39.4718 21.8912C29.9703 19.3064 0.0324439 10.9786 0.168446 9.54029C0.293086 8.22213 23.1457 12.9613 31.6111 8.95223C42.8591 7.95306 52.5357 5.07726 56.4023 5.42318C80.5891 -1.04642 90.5257 8.53438 90.2637 11.3046Z" fill="#D4D8DD"/>
<path fill-rule="evenodd" clip-rule="evenodd" d="M235.44 1.23257C235.045 0.154253 232.628 1.55834 230.208 1.74695C229.429 1.87263 228.553 2.01388 227.58 2.14298L235.44 1.23257ZM178.602 11.5533C178.088 10.151 185.307 7.0395 194.323 5.67185L178.602 11.5533Z" fill="#D4D8DD"/>
<path d="M218.844 17.8524C225.821 15.432 234.174 3.65868 235.44 1.23257L227.58 2.14298C223.749 2.65127 216.89 0.492758 213.616 1.62862C210.372 2.75371 202.154 4.48395 194.323 5.67185L178.602 11.5533C179.563 14.1736 211.867 20.2728 218.844 17.8524Z" fill="#D4D8DD"/>
</g>
</svg>
