<svg width="232" height="27" viewBox="0 0 232 27" fill="none" xmlns="http://www.w3.org/2000/svg">
<g>
<path d="M82.2638 12.54C82.0018 15.3103 55.779 26.7273 48.4024 26.0674C44.8557 25.7501 37.852 24.9323 29.0531 22.5386C19.5517 19.9538 -0.106827 12.8021 0.0291749 11.3638C0.291122 8.59357 39.9372 11.3638 48.4024 11.3638C74.4031 8.42308 82.5257 9.76977 82.2638 12.54Z" />
<path fill-rule="evenodd" clip-rule="evenodd" d="M231.012 0.777191C230.616 -0.30113 222.941 3.20354 221.942 2.54164C224.663 2.24756 219.287 3.58883 218.314 3.71792L231.012 0.777191ZM170.545 14.0387C170.031 12.6364 177.25 9.52488 186.266 8.15723L170.545 14.0387Z" />
<path d="M210.844 20.8522C217.822 18.4317 231.972 3.39748 231.012 0.777191L218.314 3.71792C214.483 4.22621 208.89 3.4925 205.616 4.62836C202.372 5.75345 194.098 6.96933 186.266 8.15723L170.545 14.0387C171.506 16.659 203.867 23.2726 210.844 20.8522Z"/>
</g>
</svg>
